<?xml version="1.0" standalone="no"?>
<!DOCTYPE svg PUBLIC "-//W3C//DTD SVG 20010904//EN"
 "http://www.w3.org/TR/2001/REC-SVG-20010904/DTD/svg10.dtd">
<svg version="1.0" xmlns="http://www.w3.org/2000/svg"
 width="700.000000pt" height="700.000000pt" viewBox="0 0 700.000000 700.000000"
 preserveAspectRatio="xMidYMid meet">
<metadata>
Created by potrace 1.11, written by Peter Selinger 2001-2013
</metadata>
<g transform="translate(0.000000,700.000000) scale(0.100000,-0.100000)"
fill="#000000" stroke="none">
<path d="M3290 6994 c-19 -2 -87 -9 -150 -15 -802 -75 -1572 -450 -2150 -1045
-553 -571 -876 -1258 -972 -2069 -16 -142 -17 -577 0 -720 82 -701 328 -1300
760 -1845 103 -129 424 -447 552 -546 547 -423 1115 -655 1805 -736 145 -17
567 -17 720 0 444 50 833 165 1225 363 328 165 592 354 859 614 585 570 931
1269 1038 2100 25 194 24 613 -1 810 -87 685 -330 1260 -760 1800 -100 126
-391 416 -516 516 -522 416 -1099 662 -1755 750 -142 19 -564 34 -655 23z
m-1218 -1084 c37 -63 68 -122 68 -130 -1 -8 -46 -44 -102 -80 -272 -175 -549
-450 -733 -726 -173 -260 -292 -527 -365 -819 -34 -136 -70 -337 -70 -397 0
-49 -7 -51 -153 -43 -75 4 -143 12 -151 19 -14 10 -13 27 4 151 41 303 112
551 234 824 227 506 583 927 1055 1248 58 40 115 71 126 70 14 -1 40 -37 87
-117z m471 -798 l68 -117 -28 -22 c-15 -12 -73 -56 -128 -97 -203 -151 -372
-349 -485 -567 -104 -202 -154 -352 -184 -558 -8 -57 -18 -106 -21 -109 -7 -7
-274 13 -282 22 -11 11 15 196 47 324 99 403 319 767 627 1035 114 98 287 219
305 212 7 -3 44 -58 81 -123z m1792 33 c105 -34 170 -73 232 -136 70 -71 105
-145 111 -236 6 -101 -11 -156 -67 -214 -36 -36 -59 -51 -105 -64 -110 -32
-238 -2 -290 68 -17 24 -20 40 -17 95 6 125 5 134 -14 148 -27 20 -104 17
-145 -4 -52 -28 -78 -84 -100 -214 -36 -208 -37 -206 147 -188 138 13 172 7
192 -36 24 -53 4 -212 -33 -269 -31 -47 -71 -56 -213 -49 -140 6 -168 -1 -190
-46 -10 -22 -79 -405 -188 -1045 -87 -514 -154 -710 -312 -917 -120 -157 -292
-245 -503 -255 -130 -6 -225 12 -329 63 -294 145 -367 549 -124 691 64 37 181
45 239 15 74 -38 124 -113 124 -184 -1 -18 -9 -58 -20 -88 -11 -30 -19 -65
-20 -77 0 -47 79 -68 144 -38 53 25 128 161 155 280 8 37 175 989 266 1520 10
57 -10 69 -124 75 -87 5 -104 9 -123 28 -20 20 -23 31 -21 98 6 189 62 253
210 240 83 -7 115 2 139 39 10 15 39 102 66 193 62 208 92 266 188 362 134
135 280 183 525 175 95 -3 137 -9 200 -30z m991 -2011 c71 -14 132 -29 136
-33 9 -8 -28 -150 -72 -276 -41 -119 -135 -305 -216 -429 -216 -329 -524 -586
-903 -751 -78 -35 -85 -36 -97 -20 -12 16 -94 238 -94 254 0 4 39 25 88 47
466 206 812 588 957 1059 46 150 56 175 65 175 4 0 65 -12 136 -26z m897 -183
c76 -16 141 -32 145 -35 9 -9 -21 -124 -80 -306 -219 -672 -593 -1169 -1168
-1552 -128 -85 -476 -268 -575 -301 -44 -15 -46 -15 -59 6 -25 40 -99 258 -90
267 5 4 50 25 99 45 210 86 462 234 641 379 111 89 314 292 397 396 245 307
408 633 508 1020 18 69 34 111 43 110 0 0 63 -13 139 -29z"/>
</g>
</svg>
